<?xml version="1.0" standalone="no"?>
<!DOCTYPE svg PUBLIC "-//W3C//DTD SVG 20010904//EN"
 "http://www.w3.org/TR/2001/REC-SVG-20010904/DTD/svg10.dtd">
<svg version="1.0" xmlns="http://www.w3.org/2000/svg"
 width="64.000000pt" height="64.000000pt" viewBox="0 0 64.000000 64.000000"
 preserveAspectRatio="xMidYMid meet">
<metadata>
Created by potrace 1.11, written by Peter Selinger 2001-2013
</metadata>
<g transform="translate(0.000000,64.000000) scale(0.100000,-0.100000)"
fill="#000000" stroke="none">
<path d="M64 629 c-36 -13 -48 -39 -50 -107 -1 -67 13 -96 57 -116 11 -4 11
-7 2 -12 -14 -6 -18 -56 -6 -68 4 -4 8 -19 10 -34 9 -80 67 -163 115 -166 17
-1 30 -15 51 -53 22 -41 35 -54 62 -62 60 -16 106 7 131 66 8 18 38 50 67 72
82 60 94 97 87 251 -2 35 2 66 12 85 27 54 29 81 9 106 -17 21 -22 22 -38 11
-49 -34 -62 -36 -101 -17 -29 15 -61 20 -146 21 -60 1 -124 -2 -141 -6 -25 -6
-34 -3 -43 10 -12 20 -51 30 -78 19z"/>
</g>
</svg>
