<svg height="700pt" preserveAspectRatio="xMidYMid meet" viewBox="0 0 700 700" width="700pt" xmlns="http://www.w3.org/2000/svg"><path d="m865 6924c-33-9-105-26-159-40-70-17-110-32-135-52-20-16-49-36-66-45-38-19-171-159-210-221-16-26-38-60-48-76s-29-80-42-144c-13-63-33-145-44-181-20-63-21-91-21-465v-397l29-104c17-57 35-133 41-169 14-79 31-121 68-168 16-21 37-52 47-71 19-38 170-191 188-191 7 0 39-18 72-40s95-52 137-66c91-30 118-57 118-116 0-54-12-72-80-118-93-63-94-69-98-321-4-256-1-267 81-327 95-70 101-87 109-302 12-322 30-449 87-618 27-81 52-163 56-182s21-60 40-90c18-30 47-90 65-132 17-42 38-82 46-89 9-7 27-36 41-63 14-28 44-76 68-106 23-30 55-75 70-100 16-25 36-51 46-58s32-32 48-55c52-73 220-237 331-323 52-40 242-134 271-134 11 0 36 7 57 15 56 24 122 37 154 30 19-5 39-22 60-53 38-57 93-106 162-148 72-42 134-154 172-308 15-61 43-140 61-175 19-35 43-87 54-116 10-28 34-69 52-91 18-21 43-55 55-75 30-49 188-192 243-220 24-12 64-34 89-50 59-36 128-54 280-74 207-28 263-29 435-6 184 25 267 44 310 71 16 11 58 34 93 51 72 36 257 210 287 269 9 19 34 58 55 85 21 28 48 82 60 120 12 39 36 93 51 122 17 29 38 92 49 145 11 51 27 109 36 130 18 41 70 94 129 131 49 31 143 120 174 164 33 48 128 118 213 156 41 19 95 50 122 70 26 21 53 37 59 37 7 0 32 16 57 35s78 57 118 85c39 28 72 54 72 59 0 4 21 22 47 40 27 18 59 48 73 66 14 19 36 40 49 47s42 37 63 66c22 29 46 56 54 59 7 3 29 31 48 62s49 75 67 97c17 21 45 68 61 104s42 85 58 110 38 77 49 115c11 39 36 115 55 170 37 106 50 187 85 530 15 152 17 219 10 335-15 263-60 774-74 840-8 36-22 109-31 163-16 91-16 102-1 170 31 136 84 296 109 329 14 18 44 71 66 118 23 47 53 100 66 118 14 18 35 63 47 100s32 85 45 107c36 62 53 120 70 230 8 55 22 127 30 160 20 76 15 149-23 323-20 88-37 141-51 160-12 15-40 51-62 79-22 29-53 59-68 67s-38 26-51 40c-41 44-138 59-211 33-46-17-182-102-234-148-22-20-55-43-71-52-17-8-53-34-80-56-44-36-100-71-220-134-69-36-218-43-330-15-21 5-57 22-80 37-22 15-71 41-110 56-38 16-90 42-115 58-25 15-83 39-128 53-46 14-114 41-150 59-42 21-101 40-157 50-49 9-130 29-180 45-186 60-347 75-790 75-402 0-564-13-735-57l-115-30-370-4c-383-4-499-14-673-54-135-32-142-30-202 50-18 25-43 54-54 66-12 11-32 34-46 50-14 17-71 60-128 98-98 64-108 68-233 97-168 38-220 42-294 23zm5651-402c19-12 112-185 122-227 33-134 20-375-27-502-16-43-39-116-51-161-13-48-36-103-55-130-17-26-40-63-50-82-25-48-123-157-165-182-19-12-48-32-63-45-16-13-41-23-56-23-37 0-116 52-135 88-21 41-67 279-67 349 0 63 50 282 77 335 9 18 23 40 31 49 7 9 29 53 47 98 19 44 47 96 62 113 15 18 35 51 44 73 10 23 36 63 58 90 23 28 54 65 69 84s50 45 78 57c54 26 64 28 81 16zm-5035-25c53-26 109-88 120-133 4-22 9-124 9-227 0-214-8-246-77-288-38-24-41-24-333-25-162 0-312-4-332-8-22-4-45-17-58-33-19-24-20-39-20-252 0-263-11-330-58-372-41-37-122-53-190-39-71 16-97 39-121 112-20 60-21 80-21 600 0 594-1 583 62 631 67 52 106 55 563 53 377-2 424-4 456-19zm917-2333c112-26 145-41 242-112 52-38 71-60 98-111 35-70 36-101 4-170-13-28-32-42-111-80-90-43-101-46-176-46-69 1-92 6-174 39-122 51-178 105-244 236-69 139-64 196 25 241 83 42 164 43 336 3zm2876 15c21-6 50-22 64-36 23-23 24-29 20-107-6-88-20-124-72-190-67-83-98-115-119-122-12-4-59-24-103-45-125-60-194-53-369 32-80 40-105 75-105 147 0 55 16 85 77 144 96 93 173 136 301 168 124 32 217 35 306 9zm-1122-2209c70-33 35-84-79-119-38-11-89-36-114-54-24-18-59-42-77-53-18-10-45-39-58-64-26-46-114-120-144-120-22 0-42 24-74 86-19 40-44 66-108 115-46 34-110 73-143 86-92 36-110 47-113 69-6 42 41 49 303 46 176-2 261 2 320 12 92 17 247 15 287-4zm-404-559c20-11 51-34 67-51 17-18 52-43 80-57 27-14 65-36 85-49 19-13 80-35 135-48 126-32 324-102 348-124 25-22 18-76-16-128-14-21-39-88-55-148-32-118-55-153-92-141-24 8-70 94-70 133 0 37-51 30-89-13-39-45-55-77-71-142-13-58-46-98-88-107-58-13-370-18-459-8-157 18-190 45-225 184-24 97-52 158-73 158-9 0-23-30-41-87-29-97-51-129-81-119-22 7-34 28-92 166-23 52-54 120-70 151-46 86-29 113 90 144 35 9 76 23 92 31 15 8 80 28 144 44 63 17 134 41 157 55 22 13 68 37 101 53 44 21 69 42 92 76 38 53 68 59 131 27z" transform="matrix(.1 0 0 -.1 0 700)"/></svg>